#!OML:ASF Y:\EmotionMaleHayes\Project 1\Capture day 1\Session 1\Male1.ASF
:FULLY-SPECIFIED
:DEGREES
1837
root -30.4523 17.0704 0.672638 -172.994 -262.924 -528.864
lowerback 7.3449 1.53734 -1.27715
upperback 1.82204 1.98586 -0.0630518
thorax -2.27475 1.01132 0.468606
lowerneck -22.0336 5.4239 7.99221
upperneck 22.5426 7.2238 -7.98426
head 11.6125 3.00791 -3.07377
rclavicle 4.84538e-015 9.93923e-016
rhumerus -39.35 -2.62598 -85.8261
rradius 29.853
rwrist 9.05738
rhand -4.99001 -28.6211
rfingers 7.12502
rthumb 20.803 -57.5259
lclavicle 4.84538e-015 9.93923e-016
lhumerus -31.4881 -4.14558 90.4405
lradius 23.9938
lwrist -13.143
lhand -19.7129 -28.1205
lfingers 7.12502
lthumb 6.617 1.75607
rfemur 8.57491 -8.50882 13.3222
rtibia 5.16672
rfoot -21.5016 -4.04921
rtoes -0.325817
lfemur 9.80329 3.26549 -16.7452
ltibia 5.20844
lfoot -17.0995 8.38793
ltoes -0.105725
1838
root -30.4414 17.0689 0.664258 -173.083 -262.914 -529.005
lowerback 7.19721 1.51867 -1.44209
upperback 1.81232 1.95276 0.040403
thorax -2.21108 0.994929 0.674532
lowerneck -21.9567 5.41636 7.93314
upperneck 22.449 7.24404 -8.02703
head 11.5637 3.00905 -3.07598
rclavicle -1.84497e-015 -1.49089e-015
rhumerus -39.3933 -2.01304 -85.8425
rradius 29.9138
rwrist 8.88313
rhand -5.20952 -28.741
rfingers 7.12502
rthumb 20.5921 -57.6688
lclavicle -1.84497e-015 -1.49089e-015
lhumerus -31.3699 -4.37452 90.8384
lradius 24.8395
lwrist -11.1046
lhand -15.439 -25.783
lfingers 7.12502
lthumb 10.7413 3.92241
rfemur 8.40127 -8.35192 13.3885
rtibia 5.32362
rfoot -21.4051 -4.16831
rtoes 1.25802
lfemur 9.76592 3.64808 -16.5872
ltibia 5.28926
lfoot -17.2516 7.83311
ltoes 0.5735
1839
root -30.4296 17.0681 0.654279 -172.291 -262.819 -528.146
lowerback 7.14445 1.52838 -1.6476
upperback 1.85499 1.95277 0.0407819
thorax -2.14445 0.995439 0.792255
lowerneck -21.8588 5.41196 7.88955
upperneck 22.2983 7.24301 -8.01705
head 11.4855 3.00875 -3.06423
rclavicle 5.46658e-016 -3.37934e-015
rhumerus -39.3067 -1.57956 -85.9013
rradius 29.8888
rwrist 8.75893
rhand -5.43141 -28.9328
rfingers 7.12502
rthumb 20.3789 -57.8835
lclavicle 5.46658e-016 -3.37934e-015
lhumerus -31.3136 -4.55554 90.974
lradius 24.8068
lwrist -11.447
lhand -15.0279 -26.304
lfingers 7.12502
lthumb 11.1378 3.38043
rfemur 8.37528 -8.28313 13.2235
rtibia 5.54731
rfoot -21.3035 -4.19347
rtoes 1.20551
lfemur 9.95715 3.62151 -16.7784
ltibia 5.12513
lfoot -17.344 7.71004
ltoes 1.8239
1840
root -30.416 17.0722 0.646217 -171.55 -262.742 -527.312
lowerback 7.08387 1.52486 -1.80261
upperback 1.92275 1.93866 -0.0275432
thorax -2.04314 0.988454 0.812908
lowerneck -21.8367 5.43195 7.97036
upperneck 22.2133 7.23026 -8.00037
head 11.4505 3.01199 -3.07284
rclavicle -2.18166e-014 4.57205e-015
rhumerus -39.1611 -1.26638 -86.044
rradius 29.8264
rwrist 8.67732
rhand -5.60846 -28.9699
rfingers 7.12502
rthumb 20.2087 -57.9387
lclavicle -2.18166e-014 4.57205e-015
lhumerus -31.2934 -5.32062 91.259
lradius 25.1421
lwrist -10.8567
lhand -14.8702 -25.6502
lfingers 7.12502
lthumb 11.2899 4.02593
rfemur 8.4227 -8.01774 13.1174
rtibia 5.66152
rfoot -21.0373 -4.58474
rtoes 0.342303
lfemur 10.2054 3.52243 -16.9728
ltibia 4.89822
lfoot -17.2161 7.67701
ltoes 3.1635
1841
root -30.4033 17.0746 0.640493 -172.605 -262.784 -528.35
lowerback 6.99359 1.492 -1.78628
upperback 1.93583 1.89927 0.0305334
thorax -1.97984 0.968149 0.869706
lowerneck -21.8472 5.43555 8.05994
upperneck 22.2215 7.22468 -8.07327
head 11.4621 3.00782 -3.11598
rclavicle 3.05197e-014 -7.05686e-015
rhumerus -39.1379 -1.08876 -85.9985
rradius 29.7099
rwrist 9.21166
rhand -5.77736 -28.5082
rfingers 7.12502
rthumb 20.0464 -57.4941
lclavicle 3.05197e-014 -7.05686e-015
lhumerus -31.2193 -5.75091 91.4909
lradius 25.0096
lwrist -11.0036
lhand -15.3739 -25.7907
lfingers 7.12502
lthumb 10.8041 3.91145
rfemur 8.41137 -7.49611 13.4607
rtibia 5.68483
rfoot -20.7364 -5.23825
rtoes 0.814759
lfemur 10.335 3.48991 -16.7988
ltibia 4.74242
lfoot -17.0374 7.4639
ltoes 4.13488
1842
root -30.3943 17.0704 0.632667 -174.026 -262.96 -529.825
lowerback 6.89989 1.41088 -1.69294
upperback 1.91568 1.80084 0.132186
thorax -1.94617 0.918289 0.932705
lowerneck -21.8262 5.42857 8.15081
upperneck 22.1925 7.22489 -8.22174
head 11.4577 2.9983 -3.18644
rclavicle 1.29334e-014 -5.96354e-016
rhumerus -39.0665 -0.95046 -85.8968
rradius 29.281
rwrist 10.5073
rhand -6.42558 -27.659
rfingers 7.12502
rthumb 19.4232 -56.7089
lclavicle 1.29334e-014 -5.96354e-016
lhumerus -31.15 -6.09565 91.7879
lradius 24.7875
lwrist -11.6993
lhand -16.4245 -25.6839
lfingers 7.12502
lthumb 9.79061 4.06853
rfemur 8.29032 -7.26466 13.8516
rtibia 5.80475
rfoot -20.4918 -5.7643
rtoes 2.54427
lfemur 10.2821 3.65532 -16.4942
ltibia 4.77701
lfoot -16.8446 6.89242
ltoes 4.71799
1843
root -30.3805 17.072 0.619714 -173.679 -263.054 -529.372
lowerback 6.93917 1.32758 -1.79714
upperback 1.92905 1.68315 0.15484
thorax -1.95431 0.860039 1.02386
lowerneck -21.7494 5.45614 8.24599
upperneck 22.1511 7.28088 -8.38369
head 11.4443 3.01449 -3.2534
rclavicle 1.01318e-014 3.77691e-015
rhumerus -38.8719 -0.591057 -85.8903
rradius 28.9526
rwrist 10.8799
rhand -6.69618 -27.6955
rfingers 7.12502
rthumb 19.163 -56.7714
lclavicle 1.01318e-014 3.77691e-015
lhumerus -31.065 -6.11137 91.9281
lradius 24.6665
lwrist -12.0575
lhand -16.5973 -25.6322
lfingers 7.12502
lthumb 9.62389 4.128
rfemur 8.30799 -7.14606 13.7917
rtibia 5.99904
rfoot -20.2721 -6.12956
rtoes 4.47966
lfemur 10.5166 3.37247 -16.71
ltibia 4.54565
lfoot -16.759 6.97996
ltoes 4.70808
1844
root -30.3662 17.0723 0.61029 -172.636 -263.118 -528.295
lowerback 6.90864 1.28461 -1.97645
upperback 1.90021 1.61265 0.125757
thorax -1.96873 0.825399 1.10089
lowerneck -21.6932 5.4595 8.3345
upperneck 22.1745 7.28791 -8.47036
head 11.4508 3.01663 -3.30038
rclavicle 7.21837e-015 1.49089e-015
rhumerus -38.7608 -0.304831 -85.8709
rradius 28.6898
rwrist 11.1878
rhand -6.88419 -27.5811
rfingers 7.12502
rthumb 18.9822 -56.6748
lclavicle 7.21837e-015 1.49089e-015
lhumerus -31.06 -6.15388 92.0183
lradius 24.6787
lwrist -12.1982
lhand -16.6259 -25.5526
lfingers 7.12502
lthumb 9.59635 4.20885
rfemur 8.25188 -6.71873 13.7657
rtibia 6.1927
rfoot -20.155 -6.59723
rtoes 6.02729
lfemur 10.6773 2.69734 -17.1438
ltibia 4.24769
lfoot -16.7881 7.58315
ltoes 4.71284
1845
root -30.3521 17.0677 0.599505 -172.146 -263.143 -527.878
lowerback 6.75129 1.2972 -2.01966
upperback 1.85464 1.62679 0.0672043
thorax -1.92817 0.831928 1.06661
lowerneck -21.6593 5.41396 8.42441
upperneck 22.2141 7.1769 -8.3968
head 11.4483 2.9839 -3.30819
rclavicle -1.07903e-014 0
rhumerus -38.637 -0.385931 -85.778
rradius 28.3845
rwrist 11.5739
rhand -7.15156 -27.3221
rfingers 7.12502
rthumb 18.7251 -56.4408
lclavicle -1.07903e-014 0
lhumerus -31.074 -6.4855 92.1514
lradius 24.7174
lwrist -12.3239
lhand -17.3327 -25.5558
lfingers 7.12502
lthumb 8.91435 4.23584
rfemur 7.98767 -6.39249 13.8268
rtibia 6.57627
rfoot -20.2791 -6.83684
rtoes 6.99963
lfemur 10.6472 2.21394 -17.4279
ltibia 4.16787
lfoot -16.8642 7.99813
ltoes 5.0899
1846
root -30.3381 17.0645 0.588668 -172.655 -263.11 -528.353
lowerback 6.6986 1.3068 -2.02047
upperback 1.84981 1.64036 0.0664145
thorax -1.9043 0.838391 1.06626
lowerneck -21.5715 5.37389 8.49164
upperneck 22.2095 7.08039 -8.31685
head 11.4192 2.95811 -3.30712
rclavicle 1.39491e-014 3.8763e-015
rhumerus -38.4787 -0.639094 -85.6085
rradius 28.0998
rwrist 12.1279
rhand -7.42214 -27.3523
rfingers 7.12502
rthumb 18.4648 -56.4959
lclavicle 1.39491e-014 3.8763e-015
lhumerus -30.9401 -6.75063 92.2724
lradius 24.5893
lwrist -12.3095
lhand -16.5492 -25.8158
lfingers 7.12502
lthumb 9.67029 3.9422
rfemur 7.79063 -6.15936 13.9775
rtibia 7.00662
rfoot -20.468 -6.94668
rtoes 7.64142
lfemur 10.7318 2.18817 -17.4406
ltibia 4.18557
lfoot -16.901 7.95263
ltoes 5.31705
1847
root -30.3248 17.0651 0.581907 -173.881 -263.015 -529.51
lowerback 6.68884 1.3094 -1.99119
upperback 1.85983 1.64721 0.116147
thorax -1.88945 0.841535 1.1008
lowerneck -21.4839 5.35325 8.45808
upperneck 22.192 7.04565 -8.23581
head 11.3874 2.95188 -3.27788
rclavicle -4.38258e-015 5.46658e-015
rhumerus -38.3256 -0.879079 -85.3876
rradius 27.9352
rwrist 12.7407
rhand -7.44628 -27.4935
rfingers 7.12502
rthumb 18.4416 -56.6393
lclavicle -4.38258e-015 5.46658e-015
lhumerus -30.773 -6.70889 92.3024
lradius 24.4211
lwrist -12.4245
lhand -15.3692 -26.0694
lfingers 7.12502
lthumb 10.8086 3.63245
rfemur 7.63135 -5.78955 14.2696
rtibia 7.38175
rfoot -20.4797 -7.1709
rtoes 8.22958
lfemur 10.7999 2.66818 -17.1411
ltibia 4.34841
lfoot -16.8057 7.43257
ltoes 4.96801
1848
root -30.3094 17.064 0.572206 -173.145 -262.851 -528.732
lowerback 6.67974 1.32126 -2.18518
upperback 1.81345 1.64893 0.128175
thorax -1.93785 0.84325 1.22133
lowerneck -21.4011 5.3423 8.31002
upperneck 22.2483 7.05775 -8.10426
head 11.3822 2.9636 -3.20365
rclavicle -3.69926e-015 -6.65929e-015
rhumerus -38.1421 -0.830357 -85.1951
rradius 27.6382
rwrist 13.1406
rhand -7.50052 -27.3433
rfingers 7.12502
rthumb 18.3894 -56.4941
lclavicle -3.69926e-015 -6.65929e-015
lhumerus -30.8472 -6.50317 92.3723
lradius 24.4423
lwrist -12.7412
lhand -15.4766 -26.1626
lfingers 7.12502
lthumb 10.7051 3.54464
rfemur 7.33627 -5.57722 14.1747
rtibia 7.99632
rfoot -20.5477 -7.33503
rtoes 8.64518
lfemur 10.8823 2.94881 -17.2352
ltibia 4.38751
lfoot -16.6631 7.18558
ltoes 4.92598
1849
root -30.2923 17.0598 0.557173 -169.493 -262.791 -524.966
lowerback 6.73867 1.29635 -2.72468
upperback 1.76613 1.5752 0.0612532
thorax -2.0286 0.809416 1.45924
lowerneck -21.3088 5.32903 8.11622
upperneck 22.3089 7.06544 -7.91075
head 11.3717 2.9772 -3.09969
rclavicle -6.69656e-015 9.93923e-017
rhumerus -37.8795 -0.705746 -85.0165
rradius 27.155
rwrist 13.4247
rhand -7.75038 -27.4818
rfingers 7.12502
rthumb 18.149 -56.6551
lclavicle -6.69656e-015 9.93923e-017
lhumerus -30.9452 -6.49214 92.5824
lradius 24.4768
lwrist -12.7087
lhand -15.7656 -25.8988
lfingers 7.12502
lthumb 10.4263 3.82263
rfemur 7.09528 -5.44051 13.5925
rtibia 8.68919
rfoot -20.8359 -7.54623
rtoes 9.28793
lfemur 11.0597 2.67311 -18.0105
ltibia 4.25505
lfoot -16.5139 7.42817
ltoes 5.99758
1850
root -30.2793 17.055 0.54469 -166.889 -262.902 -522.266
lowerback 6.81529 1.24651 -3.09485
upperback 1.72731 1.47927 0.0200245
thorax -2.11464 0.764448 1.63059
lowerneck -21.239 5.28827 7.97798
upperneck 22.3384 7.00765 -7.71343
head 11.3497 2.9654 -3.01427
rclavicle -7.36124e-016 1.39149e-015
rhumerus -37.914 -0.723953 -84.8386
rradius 27.2747
rwrist 13.4336
rhand -7.85741 -28.2207
rfingers 7.12502
rthumb 18.046 -57.4035
lclavicle -7.36124e-016 1.39149e-015
lhumerus -31.1116 -6.54928 92.7313
lradius 24.7399
lwrist -12.7168
lhand -14.9329 -25.7623
lfingers 7.12502
lthumb 11.2295 3.91719
rfemur 6.88985 -5.14712 13.3075
rtibia 9.2546
rfoot -21.1519 -8.04658
rtoes 10.2953
lfemur 11.0577 2.68954 -18.3925
ltibia 4.39984
lfoot -16.1495 7.38494
ltoes 5.69517
1851
root -30.2702 17.0519 0.537704 -166.121 -262.916 -521.421
lowerback 6.95003 1.26377 -3.26226
upperback 1.65684 1.48267 -0.0197194
thorax -2.26554 0.769549 1.67952
lowerneck -21.1731 5.23596 8.12388
upperneck 22.358 6.91158 -7.78439
head 11.3443 2.92791 -3.08245
rclavicle 6.21202e-015 -6.65929e-015
rhumerus -37.8607 -0.953753 -84.6564
rradius 27.2179
rwrist 13.3582
rhand -7.79749 -28.7019
rfingers 7.12502
rthumb 18.1037 -57.8794
lclavicle 6.21202e-015 -6.65929e-015
lhumerus -31.0209 -6.91258 92.8658
lradius 24.411
lwrist -12.6722
lhand -14.4521 -26.0667
lfingers 7.12502
lthumb 11.6932 3.58702
rfemur 6.58896 -4.71192 13.3544
rtibia 9.93761
rfoot -21.4349 -8.79394
rtoes 9.45126
lfemur 11.0336 2.91706 -18.4095
ltibia 4.62681
lfoot -15.7536 7.25062
ltoes 4.76649
